<svg width="66" height="42" viewBox="0 0 66 42" fill="none" xmlns="http://www.w3.org/2000/svg">
<path d="M35 2L41 8V20C41 20.5304 40.7893 21.0391 40.4142 21.4142C40.0391 21.7893 39.5304 22 39 22H27C26.4696 22 25.9609 21.7893 25.5858 21.4142C25.2107 21.0391 25 20.5304 25 20V4C25 3.46957 25.2107 2.96086 25.5858 2.58579C25.9609 2.21071 26.4696 2 27 2H35ZM39 20V9H34V4H27V20H39ZM38 13V19H28L33 14L35 16L38 13ZM31 10.5C31 10.8978 30.842 11.2794 30.5607 11.5607C30.2794 11.842 29.8978 12 29.5 12C29.1022 12 28.7206 11.842 28.4393 11.5607C28.158 11.2794 28 10.8978 28 10.5C28 10.1022 28.158 9.72064 28.4393 9.43934C28.7206 9.15804 29.1022 9 29.5 9C29.8978 9 30.2794 9.15804 30.5607 9.43934C30.842 9.72064 31 10.1022 31 10.5Z" fill="#F44336"/>
<path d="M7.07227 30.4688V36.2695C7.06836 37.0742 6.81445 37.7324 6.31055 38.2441C5.81055 38.7559 5.13086 39.043 4.27148 39.1055L3.97266 39.1172C3.03906 39.1172 2.29492 38.8652 1.74023 38.3613C1.18555 37.8574 0.904297 37.1641 0.896484 36.2812V30.4688H2.00977V36.2461C2.00977 36.8633 2.17969 37.3438 2.51953 37.6875C2.85938 38.0273 3.34375 38.1973 3.97266 38.1973C4.60938 38.1973 5.0957 38.0273 5.43164 37.6875C5.77148 37.3477 5.94141 36.8691 5.94141 36.252V30.4688H7.07227ZM14.0332 35.9004C14.0332 36.8652 13.8125 37.6426 13.3711 38.2324C12.9297 38.8223 12.332 39.1172 11.5781 39.1172C10.8086 39.1172 10.2031 38.873 9.76172 38.3848V41.4375H8.67773V32.6602H9.66797L9.7207 33.3633C10.1621 32.8164 10.7754 32.543 11.5605 32.543C12.3223 32.543 12.9238 32.8301 13.3652 33.4043C13.8105 33.9785 14.0332 34.7773 14.0332 35.8008V35.9004ZM12.9492 35.7773C12.9492 35.0625 12.7969 34.498 12.4922 34.084C12.1875 33.6699 11.7695 33.4629 11.2383 33.4629C10.582 33.4629 10.0898 33.7539 9.76172 34.3359V37.3652C10.0859 37.9434 10.582 38.2324 11.25 38.2324C11.7695 38.2324 12.1816 38.0273 12.4863 37.6172C12.7949 37.2031 12.9492 36.5898 12.9492 35.7773ZM16.5938 39H15.5098V30H16.5938V39ZM18.0469 35.7715C18.0469 35.1504 18.168 34.5918 18.4102 34.0957C18.6562 33.5996 18.9961 33.2168 19.4297 32.9473C19.8672 32.6777 20.3652 32.543 20.9238 32.543C21.7871 32.543 22.4844 32.8418 23.0156 33.4395C23.5508 34.0371 23.8184 34.832 23.8184 35.8242V35.9004C23.8184 36.5176 23.6992 37.0723 23.4609 37.5645C23.2266 38.0527 22.8887 38.4336 22.4473 38.707C22.0098 38.9805 21.5059 39.1172 20.9355 39.1172C20.0762 39.1172 19.3789 38.8184 18.8438 38.2207C18.3125 37.623 18.0469 36.832 18.0469 35.8477V35.7715ZM19.1367 35.9004C19.1367 36.6035 19.2988 37.168 19.623 37.5938C19.9512 38.0195 20.3887 38.2324 20.9355 38.2324C21.4863 38.2324 21.9238 38.0176 22.248 37.5879C22.5723 37.1543 22.7344 36.5488 22.7344 35.7715C22.7344 35.0762 22.5684 34.5137 22.2363 34.084C21.9082 33.6504 21.4707 33.4336 20.9238 33.4336C20.3887 33.4336 19.957 33.6465 19.6289 34.0723C19.3008 34.498 19.1367 35.1074 19.1367 35.9004ZM29.0918 39C29.0293 38.875 28.9785 38.6523 28.9395 38.332C28.4355 38.8555 27.834 39.1172 27.1348 39.1172C26.5098 39.1172 25.9961 38.9414 25.5938 38.5898C25.1953 38.2344 24.9961 37.7852 24.9961 37.2422C24.9961 36.582 25.2461 36.0703 25.7461 35.707C26.25 35.3398 26.957 35.1562 27.8672 35.1562H28.9219V34.6582C28.9219 34.2793 28.8086 33.9785 28.582 33.7559C28.3555 33.5293 28.0215 33.416 27.5801 33.416C27.1934 33.416 26.8691 33.5137 26.6074 33.709C26.3457 33.9043 26.2148 34.1406 26.2148 34.418H25.125C25.125 34.1016 25.2363 33.7969 25.459 33.5039C25.6855 33.207 25.9902 32.9727 26.373 32.8008C26.7598 32.6289 27.1836 32.543 27.6445 32.543C28.375 32.543 28.9473 32.7266 29.3613 33.0938C29.7754 33.457 29.9902 33.959 30.0059 34.5996V37.5176C30.0059 38.0996 30.0801 38.5625 30.2285 38.9062V39H29.0918ZM27.293 38.1738C27.6328 38.1738 27.9551 38.0859 28.2598 37.9102C28.5645 37.7344 28.7852 37.5059 28.9219 37.2246V35.9238H28.0723C26.7441 35.9238 26.0801 36.3125 26.0801 37.0898C26.0801 37.4297 26.1934 37.6953 26.4199 37.8867C26.6465 38.0781 26.9375 38.1738 27.293 38.1738ZM31.4414 35.7773C31.4414 34.8047 31.6719 34.0234 32.1328 33.4336C32.5938 32.8398 33.1973 32.543 33.9434 32.543C34.6855 32.543 35.2734 32.7969 35.707 33.3047V30H36.791V39H35.7949L35.7422 38.3203C35.3086 38.8516 34.7051 39.1172 33.9316 39.1172C33.1973 39.1172 32.5977 38.8164 32.1328 38.2148C31.6719 37.6133 31.4414 36.8281 31.4414 35.8594V35.7773ZM32.5254 35.9004C32.5254 36.6191 32.6738 37.1816 32.9707 37.5879C33.2676 37.9941 33.6777 38.1973 34.2012 38.1973C34.8887 38.1973 35.3906 37.8887 35.707 37.2715V34.3594C35.3828 33.7617 34.8848 33.4629 34.2129 33.4629C33.6816 33.4629 33.2676 33.668 32.9707 34.0781C32.6738 34.4883 32.5254 35.0957 32.5254 35.9004ZM44.0859 39.1172C43.2266 39.1172 42.5273 38.8359 41.9883 38.2734C41.4492 37.707 41.1797 36.9512 41.1797 36.0059V35.8066C41.1797 35.1777 41.2988 34.6172 41.5371 34.125C41.7793 33.6289 42.1152 33.2422 42.5449 32.9648C42.9785 32.6836 43.4473 32.543 43.9512 32.543C44.7754 32.543 45.416 32.8145 45.873 33.3574C46.3301 33.9004 46.5586 34.6777 46.5586 35.6895V36.1406H42.2637C42.2793 36.7656 42.4609 37.2715 42.8086 37.6582C43.1602 38.041 43.6055 38.2324 44.1445 38.2324C44.5273 38.2324 44.8516 38.1543 45.1172 37.998C45.3828 37.8418 45.6152 37.6348 45.8145 37.377L46.4766 37.8926C45.9453 38.709 45.1484 39.1172 44.0859 39.1172ZM43.9512 33.4336C43.5137 33.4336 43.1465 33.5938 42.8496 33.9141C42.5527 34.2305 42.3691 34.6758 42.2988 35.25H45.4746V35.168C45.4434 34.6172 45.2949 34.1914 45.0293 33.8906C44.7637 33.5859 44.4043 33.4336 43.9512 33.4336ZM50.8828 33.6328C50.7188 33.6055 50.541 33.5918 50.3496 33.5918C49.6387 33.5918 49.1562 33.8945 48.9023 34.5V39H47.8184V32.6602H48.873L48.8906 33.3926C49.2461 32.8262 49.75 32.543 50.4023 32.543C50.6133 32.543 50.7734 32.5703 50.8828 32.625V33.6328ZM54.9492 33.6328C54.7852 33.6055 54.6074 33.5918 54.416 33.5918C53.7051 33.5918 53.2227 33.8945 52.9688 34.5V39H51.8848V32.6602H52.9395L52.957 33.3926C53.3125 32.8262 53.8164 32.543 54.4688 32.543C54.6797 32.543 54.8398 32.5703 54.9492 32.625V33.6328ZM55.5469 35.7715C55.5469 35.1504 55.668 34.5918 55.9102 34.0957C56.1562 33.5996 56.4961 33.2168 56.9297 32.9473C57.3672 32.6777 57.8652 32.543 58.4238 32.543C59.2871 32.543 59.9844 32.8418 60.5156 33.4395C61.0508 34.0371 61.3184 34.832 61.3184 35.8242V35.9004C61.3184 36.5176 61.1992 37.0723 60.9609 37.5645C60.7266 38.0527 60.3887 38.4336 59.9473 38.707C59.5098 38.9805 59.0059 39.1172 58.4355 39.1172C57.5762 39.1172 56.8789 38.8184 56.3438 38.2207C55.8125 37.623 55.5469 36.832 55.5469 35.8477V35.7715ZM56.6367 35.9004C56.6367 36.6035 56.7988 37.168 57.123 37.5938C57.4512 38.0195 57.8887 38.2324 58.4355 38.2324C58.9863 38.2324 59.4238 38.0176 59.748 37.5879C60.0723 37.1543 60.2344 36.5488 60.2344 35.7715C60.2344 35.0762 60.0684 34.5137 59.7363 34.084C59.4082 33.6504 58.9707 33.4336 58.4238 33.4336C57.8887 33.4336 57.457 33.6465 57.1289 34.0723C56.8008 34.498 56.6367 35.1074 56.6367 35.9004ZM65.7422 33.6328C65.5781 33.6055 65.4004 33.5918 65.209 33.5918C64.498 33.5918 64.0156 33.8945 63.7617 34.5V39H62.6777V32.6602H63.7324L63.75 33.3926C64.1055 32.8262 64.6094 32.543 65.2617 32.543C65.4727 32.543 65.6328 32.5703 65.7422 32.625V33.6328Z" fill="#F44336"/>
</svg>
