<svg width="140" height="160" viewBox="0 0 140 160" fill="none" xmlns="http://www.w3.org/2000/svg">
<path d="M139.13 81.2732C139.23 94.9676 132.271 109.827 121.899 121.72C107.557 138.162 89.5177 149.338 70.9113 155.344C52.3048 161.35 35.5587 160.735 25.2582 158.027C14.9576 155.32 -11.4242 142.793 5.56228 114.954C22.5487 87.1144 25.1282 69.8918 23.4172 44.3548C21.9618 22.6468 26.8089 8.18574 39.1691 2.16045C51.9149 -4.05325 66.2634 3.71334 73.7831 18.077C81.3028 32.4406 87.9713 45.4832 107.392 50.889C126.813 56.2927 139.009 64.8585 139.13 81.2732Z" fill="url(#paint0_linear_534_1014)"/>
<defs>
<linearGradient id="paint0_linear_534_1014" x1="1.93639" y1="38.0796" x2="104.068" y2="140.211" gradientUnits="userSpaceOnUse">
<stop stop-color="#BFB4D5"/>
<stop offset="1" stop-color="#2C2663"/>
</linearGradient>
</defs>
</svg>
