<svg width="38" height="28" viewBox="0 0 38 28" fill="none" xmlns="http://www.w3.org/2000/svg">
<path d="M12.3334 0.666748C10.1232 0.666748 8.0036 1.54472 6.4408 3.10752C4.87799 4.67033 4.00002 6.78994 4.00002 9.00008V24.0001H0.666687V27.3334H34C34.8841 27.3334 35.7319 26.9822 36.357 26.3571C36.9822 25.732 37.3334 24.8841 37.3334 24.0001V9.00008C37.3334 7.90573 37.1178 6.8221 36.699 5.81105C36.2802 4.80001 35.6664 3.88135 34.8926 3.10752C34.1188 2.3337 33.2001 1.71987 32.189 1.30109C31.178 0.882296 30.0944 0.666748 29 0.666748H12.3334ZM12.3334 4.00008C13.6594 4.00008 14.9312 4.52687 15.8689 5.46455C16.8066 6.40223 17.3334 7.674 17.3334 9.00008V24.0001H7.33335V9.00008C7.33335 7.674 7.86014 6.40223 8.79782 5.46455C9.7355 4.52687 11.0073 4.00008 12.3334 4.00008V4.00008ZM20.6667 15.6667V5.66675H27.3334V9.00008H24V15.6667H20.6667Z" fill="#574B90"/>
</svg>
