<svg width="64" height="64" viewBox="0 0 64 64" fill="none" xmlns="http://www.w3.org/2000/svg">
<g clip-path="url(#clip0_534_1048)">
<path d="M39.625 3.87793H5.625C2.51238 3.87793 0 6.39031 0 9.50293V32.0029C0 35.1153 2.51238 37.6279 5.625 37.6279H7.5V43.2529C7.5 44.6076 8.90262 45.5885 10.275 44.9029C10.3125 44.8654 10.3876 44.8654 10.4251 44.8278C20.7396 37.9109 18.428 39.4532 20.7376 37.9278C21.0375 37.7403 21.375 37.6279 21.75 37.6279H39.625C42.7376 37.6279 45.25 35.1153 45.25 32.0029V9.50293C45.25 6.39031 42.7376 3.87793 39.625 3.87793ZM24.625 26.3779H9.375C6.90337 26.3779 6.89325 22.6279 9.375 22.6279H24.625C27.0966 22.6279 27.1068 26.3779 24.625 26.3779ZM35.875 18.8779H9.375C6.90337 18.8779 6.89325 15.1279 9.375 15.1279H35.875C38.3466 15.1279 38.3568 18.8779 35.875 18.8779Z" fill="#574B90"/>
<path d="M58.3751 18.8779H49.0001V32.0029C49.0001 37.1779 44.8001 41.3779 39.6251 41.3779H22.3126L18.7501 43.7404V47.0029C18.7501 50.1153 21.2625 52.6279 24.3751 52.6279H42.8125L53.575 59.8278C55.044 60.6434 56.5001 59.6516 56.5001 58.2529V52.6279H58.3751C61.4877 52.6279 64.0001 50.1153 64.0001 47.0029V24.5029C64.0001 21.3904 61.4877 18.8779 58.3751 18.8779Z" fill="#574B90"/>
</g>
<defs>
<clipPath id="clip0_534_1048">
<rect width="64" height="64" fill="white"/>
</clipPath>
</defs>
</svg>
