<svg width="193" height="193" viewBox="0 0 193 193" fill="none" xmlns="http://www.w3.org/2000/svg">
<g clip-path="url(#clip0_1956_11)">
<path d="M119.492 11.6935H16.9626C7.57624 11.6935 0 19.2698 0 28.6561V96.5064C0 105.892 7.57624 113.469 16.9626 113.469H22.6168V130.431C22.6168 134.516 26.8465 137.475 30.985 135.407C31.098 135.294 31.3246 135.294 31.4377 135.181C62.5417 114.322 55.5709 118.973 62.5357 114.373C63.44 113.808 64.4577 113.469 65.5886 113.469H119.492C128.878 113.469 136.454 105.892 136.454 96.5064V28.6561C136.454 19.2698 128.878 11.6935 119.492 11.6935ZM74.2583 79.5438H28.2709C20.8176 79.5438 20.7871 68.2354 28.2709 68.2354H74.2583C81.7117 68.2354 81.7422 79.5438 74.2583 79.5438ZM108.183 56.927H28.2709C20.8176 56.927 20.7871 45.6187 28.2709 45.6187H108.183C115.637 45.6187 115.667 56.927 108.183 56.927Z" fill="white"/>
<path d="M176.034 56.927H147.763V96.5063C147.763 112.112 135.097 124.777 119.492 124.777H67.2849L56.5419 131.902V141.74C56.5419 151.125 64.1182 158.702 73.5045 158.702H129.104L161.559 180.414C165.989 182.874 170.38 179.883 170.38 175.665V158.702H176.034C185.42 158.702 192.996 151.125 192.996 141.74V73.8896C192.996 64.5036 185.42 56.927 176.034 56.927Z" fill="white"/>
</g>
<defs>
<clipPath id="clip0_1956_11">
<rect width="192.996" height="192.996" fill="white"/>
</clipPath>
</defs>
</svg>
